<?xml version="1.0" encoding="utf-8" ?><svg xmlns="http://www.w3.org/2000/svg" xmlns:xlink="http://www.w3.org/1999/xlink" width="2072" height="1184" viewBox="470 180 1130 900"><path fill="#7C3AED" transform="scale(1.54167 1.54167)" d="M669.81 153.867C669.977 153.84 670.144 153.813 670.312 153.786C692.583 152.607 714.114 157.1 731.129 172.059C746.52 185.589 756.101 205.657 757.315 225.805C758.769 249.949 751.484 274.564 737.51 294.19C733.73 299.499 728.476 305.315 724.153 310.269C722.682 330.594 721.001 353.539 729.759 372.451C736.357 386.696 747.133 397.121 761.872 402.685C771.31 406.248 792.565 408.98 801.245 404.675C816.783 396.967 816.76 370.384 819.526 355.596C820.996 347.742 822.886 341.794 825.539 334.311C816.403 328.54 810.191 323.737 804.239 314.669C792.222 296.36 794.115 269.247 813.791 257.054C822.02 251.954 833.723 250.227 843.258 252.134C858.611 255.206 857.959 278.086 845.627 284.461C844.15 285.221 842.591 285.677 841.05 285.111C841.193 280.987 854.287 268.836 844.139 262.468C835.207 256.863 818.707 265.034 813.925 273.691C802.473 294.423 815.11 310.844 832.37 322.087C834.872 319.084 837.482 316.173 840.196 313.36C874.503 278.204 929.455 286.897 962.451 319.109C1006.22 361.309 1000.97 434.505 959.984 476.696C930.461 507.084 892.83 515.716 851.865 515.976C850.242 520.598 848.234 525.076 845.862 529.363C833.75 552.117 813.019 569.06 788.314 576.399C759.391 584.898 725.324 579.768 703.945 557.465C691.325 544.298 684.704 529.543 679.65 512.359C678.812 508.948 678.152 505.471 677.462 502.025C674.966 511.13 672.618 519.17 669.299 527.953C651.56 574.905 600.366 591.6 555.52 572.725C528.56 561.378 514.517 542.191 503.432 515.705L486.974 515.287C417.677 512.932 360.856 460.792 363.484 389.649C364.287 361.921 376.269 335.696 396.705 316.943C427.674 288.257 475.702 280.183 510.423 307.666C515.729 311.866 519.842 316.356 524.407 321.346C531.09 318.509 536.746 313.696 540.617 307.553C548.753 294.831 549.638 275.619 535.544 266.355C530.253 262.877 514.135 260.407 510.224 266.861C506.934 272.292 516.031 281.81 517.699 286.946L517.018 287.826C500.43 288.583 493.155 250.083 524.908 252.764C566.069 256.24 569.192 301.222 543.206 325.055C539.211 328.719 535.512 331.043 530.922 333.791C533.362 340.914 535.248 346.367 536.941 353.942C539.561 365.15 540.779 395.219 550.91 401.951C569.433 414.259 604.144 403.057 617.126 386.864C636.088 363.212 633.58 337.987 631.789 310.927C629.008 306.571 622.69 299.479 619.21 294.906C608.029 280.3 601.059 262.911 599.056 244.625C593.61 196.515 621.271 159.404 669.81 153.867ZM869.106 478.397C871.824 476.952 876.832 474.037 879.561 473.23C890.243 470.075 884.964 478.184 896.367 473.657C898.011 470.314 898.873 468.39 901.834 466.04C906.41 466.003 907.567 466.871 911.294 469.619C913.511 468.664 918.261 467.032 918.693 464.932C919.301 461.982 922.286 456.817 925.657 456.146C934.976 454.29 936.916 458.164 936.411 444.669C940.682 438.357 941.367 438.56 948.371 435.931L952.211 430.034C948.931 426.293 946.23 420.959 950.829 417.189C954.245 414.389 958.305 413.632 958.437 408.61C958.779 403.476 953.175 403.691 954.35 396.942C955.251 391.765 963.678 388.518 959.356 383.56C957.239 381.13 954.004 381.255 954.027 376.231C954.054 370.31 957.262 367.234 954.495 361.606C951.593 358.972 946.075 362.929 944.332 353.157C943.837 350.379 946.695 346.172 943.478 343.522C940.781 341.301 936.775 342.301 934.301 340.116C929.595 335.959 929.689 327.257 922.23 326.183C920.282 327.114 919.914 327.398 918.25 328.786C917.288 328.365 912.361 326.247 911.861 325.562C907.259 319.277 907.933 316.369 899.741 320.907C896.901 322.48 887.693 317.934 882.475 318.31C881.509 320.814 880.98 322.89 878.329 323.962C872.692 326.244 862.538 323.495 863.123 332.78C865.537 335.172 875.429 339.788 879.019 341.97C898.354 353.722 915.845 369.113 915.811 393.608C915.764 427.883 881.451 450.09 869.106 478.397ZM413.85 352.424C413.292 353.338 410.456 357.976 409.939 358.29C403.818 362.016 403.636 357.923 400.378 365.342C401.392 369.672 403.304 375.402 401.193 379.389C400.035 381.778 394.989 384.316 396.187 387.601C397.983 392.529 405.049 396.952 400.751 402.963C392.104 415.058 406.299 413.255 407.934 420.069C409.951 428.47 403.276 427.253 409.166 436.739C416.209 437.899 417.69 438.143 421.381 444.403C418.707 463.083 428.853 450.534 437.185 459.956C438.845 461.833 437.158 468.231 443.285 468.173C453.239 468.079 456.871 463.148 462.854 474.395C464.352 477.211 470.148 474.655 471.557 472.751C472.433 472.066 475.356 472.985 476.891 473.425L487.656 478.185C470.755 445.01 429.054 417.415 441.573 378.189C447.037 361.071 463.427 348.162 478.864 340.209C482.272 338.453 493.317 334.537 494.398 332.008L492.586 329.784C492.703 328.828 492.801 327.87 492.881 326.911C488.929 322.882 484.087 326.34 479.277 324.047C477.744 322.377 475.317 318.543 473.821 318.534C469.899 318.51 463.722 320.807 459.756 321.868C456.363 319.418 455.943 318.631 451.749 317.997C441.417 332.577 442.119 320.648 429.739 328.428C428.186 329.403 429.641 333.851 427.956 335.199C419.93 344.835 410.32 334.692 413.85 352.424ZM532.272 513.208C534.794 514.555 538.189 516.237 540.564 517.692C540.875 521.712 541.078 527.178 542.47 530.867C544.771 532.698 548.834 531.002 551.808 534.678C554.955 538.57 554.899 541.837 558.503 545.639C563.905 545.927 568.6 543.97 572.295 547.355C573.809 550.756 573.152 551.63 575.509 553.349C582.425 554.669 584.839 549.572 590.842 550.095C594.892 550.448 594.991 556.73 600.991 552.386C604.519 549.832 605.297 541.642 611.763 542.213C615.005 542.5 614.004 543.448 617.174 542.479C621.614 538.748 619.582 533.116 621.985 529.836C627.203 522.712 629.525 528.482 633.241 518.656C622.493 507.713 633.884 507.692 637.419 499.135C638.871 495.62 633.576 491.768 633.12 488.629C632.543 479.633 640.068 474.828 637.692 465.052C608.717 469.112 590.668 487.871 564.94 500.398C553.996 505.726 541.16 508.711 532.272 513.208ZM811.509 440.937C801.987 444.511 793.184 443.365 783.126 442.935C797.841 456.049 814.167 465.129 832.665 471.976C835.192 472.911 838.804 473.958 841.347 472.757C843.492 465.065 842.014 467.073 848.864 462.067L850.398 460.956C851.32 457.787 852.902 450.452 856.055 449.11C860.178 447.355 861.67 444.003 862.166 439.772C864.068 437.257 869.042 434.703 871.938 432.987C873.618 424.108 874.469 422.248 883.669 421.075C884.198 418.314 884.726 415.107 885.352 412.407C887.521 411.134 890.944 409.555 891.877 407.453L891.754 406.717C890.641 399.762 897.355 391.957 895.441 390.481C889.416 385.837 893.376 379.982 890.406 375.722C886.484 374.151 884.815 375.166 883.033 370.299C880.924 364.54 880.471 363.063 874.076 363.219C871.338 362.108 869.658 358.125 868.352 355.513C866.525 354.585 860.578 351.412 858.97 350.892C856.941 349.422 852.935 346.913 850.518 346.577C850.648 348.157 852.052 349.093 853.379 350.525C852.233 360.284 850.714 357.124 847.396 363.308C844.803 368.14 855.431 377.579 850.499 383.848C846.816 385.857 843.953 387.288 845.067 391.645C850.04 411.107 844.973 407.104 834.536 419.194C833.689 420.175 835.431 429.262 829.751 430.981C819.318 435.332 818.953 429.296 811.509 440.937ZM475.501 360.361C475.118 364.046 475.202 368.214 471.301 369.451C463.454 371.876 463.041 374.81 463.901 382.129C464.074 383.605 455.82 388.421 459.154 391.104C465.836 396.483 460.68 401.088 462.547 405.78C467.801 408.131 468.699 408.053 472.339 412.66C472.296 414.983 471.896 417.301 473.175 419.037C478.055 422.313 483.402 422.17 485.922 427.073C485.816 431.1 485.05 430.964 487.354 433.808C489.542 436.508 500.459 440.308 499.804 443.821C498.116 452.872 504.683 450.7 508.744 455.789C512.267 460.205 509.102 472.803 519.085 472.025C523.949 471.898 530.093 469.447 534.663 467.572C551.831 460.091 559.012 454.855 573.452 443.027C566.406 443.203 548.148 445.174 544.09 440.098C538.236 432.775 539.189 434.226 528.718 433.044C520.165 426.662 523.302 422.709 518.012 413.275C509.983 411.797 509.892 409.372 508.545 401.68C512.865 396.356 512.851 396.093 510.997 389.443C507.776 386.285 504.898 384.115 504.367 379.493C505.237 375.286 509.218 372.995 509.106 368.315C508.929 360.949 499.284 355.822 506.471 346.843L504.641 346.461C503.269 347.246 500.365 348.922 498.951 349.121C480.269 351.749 495.26 360.128 475.501 360.361ZM705.123 324.713C710.703 323.224 715.052 318.852 716.513 313.263C717.974 307.675 716.321 301.733 712.183 297.703C708.046 293.673 702.064 292.177 696.517 293.785C688.069 296.235 683.167 305.031 685.525 313.507C687.884 321.983 696.624 326.981 705.123 324.713ZM823.473 513.29C809.207 507.999 797.792 504.775 783.885 497.932C765.892 489.077 737.401 465.053 717.274 465.442C716.306 468.665 717.1 474.108 717.396 477.65C730.457 488.579 711.193 494.999 719.046 502.566C725.88 509.151 727.367 506.361 722.578 519.815C723.076 521.023 724.669 525.169 725.7 525.371C731.399 526.487 734.509 528.291 734.732 535.199C735.136 547.738 746.257 539.232 751.474 545.222C752.678 548.375 751.038 550.723 754.017 552.212C759.859 555.131 764.447 547.736 770.161 550.144C774.698 552.055 775.357 554.735 780.585 552.918C783.957 549.118 784.897 544.539 789.472 543.551C795.029 543.722 792.652 548.887 799.176 544.163C801.262 538.911 802.452 533.969 808.719 532.589C815.62 531.069 814.976 527.331 815.424 521.353C818.297 518.129 820.335 516.174 823.473 513.29ZM657.222 324.837C665.849 322.685 671.073 313.916 668.859 305.303C666.645 296.69 657.84 291.529 649.246 293.807C640.739 296.061 635.644 304.757 637.836 313.282C640.027 321.807 648.684 326.966 657.222 324.837Z"/><path fill="#7C3AED" transform="scale(1.54167 1.54167)" d="M698.226 300.932C701.208 299.953 704.487 300.668 706.791 302.8C709.096 304.932 710.063 308.146 709.319 311.196C708.575 314.247 706.237 316.654 703.21 317.485C698.686 318.727 693.998 316.133 692.645 311.641C691.292 307.148 693.769 302.396 698.226 300.932Z"/><path fill="#7C3AED" transform="scale(1.54167 1.54167)" d="M651.295 300.848C655.816 299.801 660.36 302.503 661.598 306.977C662.837 311.451 660.331 316.106 655.915 317.535C652.887 318.515 649.565 317.754 647.264 315.554C644.962 313.354 644.053 310.069 644.894 306.999C645.736 303.928 648.194 301.566 651.295 300.848Z"/><defs><linearGradient id="gradient_0" gradientUnits="userSpaceOnUse" x1="856.89563" y1="353.18811" x2="850.12561" y2="350.41251"><stop offset="0" stop-color="#F8F4F8" stop-opacity="0"/><stop offset="1" stop-color="#EDEBEB" stop-opacity="0.05882353"/></linearGradient></defs><path fill="url(#gradient_0)" transform="scale(1.54167 1.54167)" d="M853.379 350.525C852.052 349.093 850.648 348.157 850.518 346.577C852.935 346.913 856.941 349.422 858.97 350.892L858.057 351.451C856.672 351.479 856.456 351.491 855.106 351.768L854.802 355.49L853.837 356.125C853.848 354.347 854.063 352.146 853.379 350.525Z"/></svg>